<svg id="Calque_1" data-name="Calque 1" xmlns="http://www.w3.org/2000/svg" viewBox="0 0 347.31 78.29"><defs><style>.cls-1{fill:#1b1464;}.cls-2{fill:#034ea2;}.cls-3{fill:#fff;}.cls-4{fill:#0069cc;}.cls-5{fill:#ed1c24;}</style></defs><title>Récupérer ses données avec FC</title><path class="cls-1" d="M354.23,10.72H15.33c-2.39,0-4.18,2-4.18,4.65V23s0,0,0,0V86.11A2.7,2.7,0,0,0,13.89,89H355.66a2.73,2.73,0,0,0,2.79-2.9V15.37a4.36,4.36,0,0,0-4.22-4.65" transform="translate(-11.14 -10.72)"/><path class="cls-2" d="M59,12.21H15.4c-1.68,0-2.71,1.49-2.71,3.18V81.18a2.76,2.76,0,0,0,2.71,3H354.15a2.78,2.78,0,0,0,2.75-3V15.39a2.92,2.92,0,0,0-2.75-3.18H59" transform="translate(-11.14 -10.72)"/><polygon class="cls-3" points="150.23 50.56 150.23 56.8 147.56 56.8 147.56 41.02 157.76 41.02 157.76 43.26 150.23 43.26 150.23 48.42 156.77 48.42 156.77 50.56 150.23 50.56"/><path class="cls-3" d="M172.33,67.52V55.89h2.12l.1.74a10.25,10.25,0,0,1,4.19-1.06H179v2.21h-.64a9.78,9.78,0,0,0-3.53.74v9Z" transform="translate(-11.14 -10.72)"/><path class="cls-3" d="M188.77,67.52l0-.62a13.21,13.21,0,0,1-4.26.94,4,4,0,0,1-2.74-.92,3.48,3.48,0,0,1-1.11-2.74,3.29,3.29,0,0,1,1.68-3.08,6.23,6.23,0,0,1,3-.53,28.2,28.2,0,0,1,3,.16v-.46c0-2-.8-2.74-3.38-2.74a28.11,28.11,0,0,0-3,.18V55.78a33.51,33.51,0,0,1,3.48-.21c1.61,0,3.2.16,4.26,1.13s1.2,2.21,1.2,3.85v7Zm-.39-5.11c-.85-.09-1.95-.16-2.71-.16-1.92,0-2.58.69-2.58,1.86A1.87,1.87,0,0,0,185.2,66a10.85,10.85,0,0,0,3.18-.67Z" transform="translate(-11.14 -10.72)"/><path class="cls-3" d="M203.76,67.52V60.25a2.26,2.26,0,0,0-2.58-2.56,9.47,9.47,0,0,0-3.15.71v9.12h-2.51V55.89h2.12l.07.62a14.42,14.42,0,0,1,4.31-.94,4.31,4.31,0,0,1,3.33,1.29,4.69,4.69,0,0,1,.92,3.29v7.37Z" transform="translate(-11.14 -10.72)"/><path class="cls-3" d="M214.59,67.84a4.64,4.64,0,0,1-3.41-1.33,6.59,6.59,0,0,1-1.52-4.79,6.28,6.28,0,0,1,2-5.07,6.21,6.21,0,0,1,4-1.08,27,27,0,0,1,2.88.18v2a24.69,24.69,0,0,0-2.6-.16c-2.62,0-3.68,1.31-3.68,4.12,0,2.44,1,4.06,3.15,4.06a13.14,13.14,0,0,0,3.32-.65v2a15.13,15.13,0,0,1-4.12.73" transform="translate(-11.14 -10.72)"/><path class="cls-3" d="M226.1,67.84a5.11,5.11,0,0,1-3.73-1.33,6.64,6.64,0,0,1-1.52-4.81,6.5,6.5,0,0,1,1.75-4.91,5.53,5.53,0,0,1,3.82-1.22,5.45,5.45,0,0,1,3.66,1.17c1.43,1.25,1.57,3,1.57,5.51h-8.22c0,2.44,1.15,3.61,3.34,3.61a20.23,20.23,0,0,0,4.44-.66v1.88a23.53,23.53,0,0,1-5.11.76m.16-10.59c-2,0-2.72,1.29-2.83,3.32h5.68c-.08-2.21-.82-3.32-2.85-3.32" transform="translate(-11.14 -10.72)"/><path class="cls-3" d="M241,67.84a6.28,6.28,0,0,1-4.58-1.77c-1.49-1.54-2.07-3.75-2.07-6.45,0-2.55.74-5.2,2.74-6.74a8.17,8.17,0,0,1,5.3-1.45c1.15,0,2.35.09,3.64.22V54a29.19,29.19,0,0,0-3.48-.23c-4.06,0-5.46,2.21-5.46,5.94s1.47,5.87,4.63,5.87a18.18,18.18,0,0,0,4.58-.85v2.23a20.21,20.21,0,0,1-5.3.92" transform="translate(-11.14 -10.72)"/><path class="cls-3" d="M250.76,66.62c-1.2-1-1.75-2.64-1.75-4.9s.53-3.92,1.75-4.93a6.07,6.07,0,0,1,4.05-1.22,6.18,6.18,0,0,1,4.06,1.22c1.17,1,1.72,2.65,1.75,4.91s-.56,3.91-1.75,4.92a7.35,7.35,0,0,1-8.11,0M258,61.76c0-2.8-.94-4.23-3.2-4.23s-3.2,1.24-3.2,4.12.95,4.26,3.2,4.26,3.2-1.27,3.2-4.15" transform="translate(-11.14 -10.72)"/><path class="cls-3" d="M272.48,67.52V60.25a2.26,2.26,0,0,0-2.58-2.56,9.47,9.47,0,0,0-3.16.71v9.12h-2.51V55.89h2.12l.07.62a14.43,14.43,0,0,1,4.3-.94,4.31,4.31,0,0,1,3.34,1.29,4.7,4.7,0,0,1,.93,3.29v7.37Z" transform="translate(-11.14 -10.72)"/><path class="cls-3" d="M287.79,67.52V60.25a2.26,2.26,0,0,0-2.58-2.56,9.47,9.47,0,0,0-3.16.71v9.12h-2.51V55.89h2.12l.07.62a14.56,14.56,0,0,1,4.31-.94,4.33,4.33,0,0,1,3.34,1.29,4.69,4.69,0,0,1,.92,3.29v7.37Z" transform="translate(-11.14 -10.72)"/><path class="cls-3" d="M298.93,67.84a5.12,5.12,0,0,1-3.73-1.33,6.68,6.68,0,0,1-1.52-4.81,6.54,6.54,0,0,1,1.75-4.91,5.54,5.54,0,0,1,3.83-1.22,5.47,5.47,0,0,1,3.66,1.17c1.42,1.25,1.56,3,1.56,5.51h-8.22c.05,2.44,1.15,3.61,3.34,3.61a20.41,20.41,0,0,0,4.45-.66v1.88a23.62,23.62,0,0,1-5.12.76m.16-10.59c-2,0-2.71,1.29-2.83,3.32H302c-.09-2.21-.83-3.32-2.86-3.32" transform="translate(-11.14 -10.72)"/><path class="cls-3" d="M312.15,67.84a4.64,4.64,0,0,1-3.41-1.33,6.63,6.63,0,0,1-1.52-4.79,6.26,6.26,0,0,1,2-5.07,6.18,6.18,0,0,1,4-1.08,27,27,0,0,1,2.88.18v2a24.86,24.86,0,0,0-2.6-.16c-2.63,0-3.69,1.31-3.69,4.12,0,2.44,1,4.06,3.16,4.06a13,13,0,0,0,3.31-.65v2a15.06,15.06,0,0,1-4.12.73" transform="translate(-11.14 -10.72)"/><path class="cls-3" d="M323.69,67.84a3.08,3.08,0,0,1-3.09-1.79,7.92,7.92,0,0,1-.55-3.27V57.85h-1.87v-2h1.87l.27-3.52h2.26v3.52H326v2h-3.39v4.56a8.63,8.63,0,0,0,.19,2.19,1.53,1.53,0,0,0,1.68,1.22,10.7,10.7,0,0,0,1.7-.23v1.88a11.46,11.46,0,0,1-2.46.37" transform="translate(-11.14 -10.72)"/><polygon class="cls-3" points="16.72 20.01 16.72 54.97 47 72.45 77.28 54.97 77.28 20.01 47 2.53 16.72 20.01"/><path class="cls-1" d="M58.14,12.12l-31.26,18v36.1l31.26,18,31.26-18V30.16ZM88.42,65.69,58.14,83.17,27.87,65.69v-35L58.14,13.25,88.42,30.73Z" transform="translate(-11.14 -10.72)"/><polygon class="cls-4" points="61.41 18.83 47.7 10.92 34 18.83 24.7 24.2 24.7 24.23 24.7 50.77 24.7 50.77 47.7 64.06 70.72 50.77 70.72 50.77 70.72 24.23 70.72 24.2 61.41 18.83"/><polygon class="cls-2" points="63.05 37.49 54.74 23.11 47.7 10.92 47.7 27.63 47.7 64.06 70.71 50.77 70.71 50.76 63.05 37.49"/><polygon class="cls-4" points="54.75 23.11 63.05 37.49 70.72 24.23 70.72 24.2 61.41 18.83 54.75 23.11"/><polygon class="cls-5" points="61.41 18.83 47.7 10.92 54.75 23.11 61.41 18.83"/><path class="cls-4" d="M65.89,33.83l-7-12.19Z" transform="translate(-11.14 -10.72)"/><polygon class="cls-4" points="63.05 37.49 63.05 37.49 54.74 23.11 63.05 37.49"/><polygon class="cls-5" points="70.72 50.77 70.72 24.23 63.05 37.49 70.72 50.77"/><path class="cls-5" d="M74.19,48.22l7.67,13.27Z" transform="translate(-11.14 -10.72)"/><polygon class="cls-4" points="32.36 37.49 40.66 23.11 47.7 10.92 47.7 27.63 47.7 64.06 24.7 50.77 24.7 50.76 32.36 37.49"/><polygon class="cls-5" points="40.66 23.11 32.36 37.49 24.7 24.23 24.7 24.2 34 18.83 40.66 23.11"/><polygon class="cls-2" points="34 18.83 47.7 10.92 40.66 23.11 34 18.83"/><path class="cls-4" d="M51.81,33.83l7-12.19Z" transform="translate(-11.14 -10.72)"/><polygon class="cls-4" points="32.36 37.49 32.36 37.49 40.66 23.11 32.36 37.49"/><polygon class="cls-2" points="24.7 50.77 24.7 24.23 32.36 37.49 24.7 50.77"/><path class="cls-4" d="M43.5,48.22,35.84,61.49Z" transform="translate(-11.14 -10.72)"/><path class="cls-2" d="M67.28,50.78a5.09,5.09,0,0,1,1.23,0c.29.07.73.06.73.2-.13.59-1,.75-1.41,1.35h-.22c-.21.15-.13.51-.35.52a1,1,0,0,0-.65.09,1.24,1.24,0,0,0,1.1.4c.08,0,.22.14.23.29a.21.21,0,0,0,.14-.08c.07,0,.14,0,.15.07v.29c-.2.29-.57.16-.86.24a3.24,3.24,0,0,0,1.67,0c.43-.15,0-.86.25-1.23-.14,0,0-.22-.15-.22.14-.14.28-.37.43-.44a.53.53,0,0,0,.42-.23c0-.15-.29-.21-.22-.36.42-.3.77-.74.62-1.18-.08-.21-.66-.19-1-.33a2.37,2.37,0,0,0-1.22.1,6.06,6.06,0,0,0-1.08.32,5.08,5.08,0,0,0-1.36.77,9.4,9.4,0,0,1,1.58-.48" transform="translate(-11.14 -10.72)"/><path class="cls-3" d="M72.9,55.12A10.13,10.13,0,0,0,72.08,54a5.83,5.83,0,0,1-.84-1.5c-.23-.57,0-1.09,0-1.66a10.3,10.3,0,0,0-.6-3.25c-.23-.5-.31-1.08-.55-1.58a2.32,2.32,0,0,0-.38-.86.58.58,0,0,1,0-.5,8.1,8.1,0,0,0,.84-.75.82.82,0,0,0-.32-1.08c-.51-.2-.41.52-.77.67h-.22c-.08-.22.06-.29.2-.44s0-.22-.07-.22c-.29,0-.58,0-.66-.2a6,6,0,0,0-2.88-1.88,3.39,3.39,0,0,0,.88.12,2.65,2.65,0,0,0,1.51-.18c.36-.16.42-.74.55-1.1a.61.61,0,0,0,0-.38,1.82,1.82,0,0,0-.26-.56s-.11-.14-.22-.26c-.84-.89-4-3.48-9.72-3.07A25.34,25.34,0,0,0,49.41,38a2.12,2.12,0,0,0-.38.15,5.48,5.48,0,0,0-1.9,1.38,6.48,6.48,0,0,0-1.32,2.35,6.26,6.26,0,0,0-2,2.37c-.58,1.18-1.41,2.23-1.36,3.49a2.18,2.18,0,0,0,0,.25c0,.36.12.71.2,1.06.17.78.37,1.55.55,2.39a7,7,0,0,0,.32,1.23c.15.43,0,.94.25,1.29s.09.51.38.65c0,.07,0,.21,0,.29s.07.14.22.14v.28a11.31,11.31,0,0,1,1.73,2.13c.16.43-.72.24-1.08.1a8.15,8.15,0,0,1-1.78-1.4.29.29,0,0,0-.07.15c.3.5,1.41,1.12.84,1.5-.29.15-.66-.2-.94.1-.07.14,0,.29,0,.43-.44-.28-.87-.12-1.31-.25-.29-.07-.38-.65-.74-.64A19.17,19.17,0,0,0,38.32,57l-.23,0a19.55,19.55,0,0,0-2.64-.14v.94a11,11,0,0,1,2.42-.41h.25a2.17,2.17,0,0,1,.72,0,5.48,5.48,0,0,0-1,.07,13.7,13.7,0,0,0-2.39.66v1c.44,0,.88.13,1.32.21s1,.22,1.48.36a8.13,8.13,0,0,1,1.83.82,5,5,0,0,0,.74.56,1.44,1.44,0,0,0,1.23,0h.37a6.06,6.06,0,0,0,2.93-1.45c0,.07.07.07.15.06a5.27,5.27,0,0,1-.61,1.76c0,.07-.07.22.08.29h.14c-.07,0-.14,0-.14.08s.22,0,.29.14a1.43,1.43,0,0,0-.93.46c0,.07.15.06.22.06-.14.15-.36.09-.42.23a.24.24,0,0,0,.14.07c-.07,0-.14,0-.14.08a1.48,1.48,0,0,0,0,.21c-.22,0-.29.16-.43.23.29.21.5,0,.79,0-.79.31-1.42.77-2.21,1-.15,0,0,.22-.15.23.23.13.37-.09.58-.09l-1.24.73,2.43,1.4a10.87,10.87,0,0,0,2.72-2.24.24.24,0,0,1,.08.14,3.18,3.18,0,0,1-1.19,1.7c-.41.23-.69.58-1,.74l1.79,1a4.91,4.91,0,0,1,1.16-.66c.07,0,.22.14.36.06a3,3,0,0,1,2.29-1.14c0,.07,0,.14.07.14h.05l.1-.08c0,.06,0,.07-.1.08l-.76.6c-.06.07,0,.14.08.14.36-.16.57-.45.93-.61-.07.08-.07.22-.14.3a16.89,16.89,0,0,0-2.27,2.19l9.49,5.49,1.07-1.54a77.46,77.46,0,0,1,5.24-6.87,4.61,4.61,0,0,1,1-.32,33.22,33.22,0,0,1,3.7.41,1.08,1.08,0,0,1,.44.14,2.9,2.9,0,0,0,1.37-.11,1.79,1.79,0,0,0,1.28-1.12,1.94,1.94,0,0,0,0-1.6c-.46-.64.41-.88.69-1.32s-.16-.58-.25-.94c-.07-.14-.36-.06-.51-.27.5-.23,1.28-.69.91-1.33-.23-.36-.61-.93-.19-1.3s1.3-.25,1.51-.77c.33-.87-.48-1.58-.94-2.29m-3.13-3.54c-.07.15.22.21.22.36a.53.53,0,0,1-.42.23c-.15.07-.29.29-.43.44.15,0,0,.22.15.22-.28.36.18,1.08-.25,1.23a3.24,3.24,0,0,1-1.67,0c.29-.08.66,0,.86-.24v-.29c0-.07-.08-.07-.15-.07a.22.22,0,0,1-.14.07.33.33,0,0,0-.23-.28,1.24,1.24,0,0,1-1.1-.4,1,1,0,0,1,.65-.09c.22,0,.14-.37.35-.52h.22c.42-.6,1.28-.76,1.41-1.35,0-.14-.44-.13-.73-.2a5.09,5.09,0,0,0-1.23,0,9.4,9.4,0,0,0-1.58.48,5.08,5.08,0,0,1,1.36-.77,6.21,6.21,0,0,1,1.07-.32,2.42,2.42,0,0,1,1.23-.1c.37.14,1,.12,1,.33.15.43-.2.88-.62,1.18" transform="translate(-11.14 -10.72)"/><path class="cls-3" d="M117.29,44H115l-4.78-5.83h-3V44h-1.79V29.45h4.11a6.3,6.3,0,0,1,4.14,1.09,3.63,3.63,0,0,1,1.25,2.86A4.3,4.3,0,0,1,112,37.62ZM107.22,31v5.68h2.11a4.12,4.12,0,0,0,2.86-.81,3.07,3.07,0,0,0,.86-2.35c0-1.68-1.13-2.52-3.4-2.52Z" transform="translate(-11.14 -10.72)"/><path class="cls-3" d="M123.65,44.21a5.75,5.75,0,0,1-4.21-1.47,5.54,5.54,0,0,1-1.5-4.15,6,6,0,0,1,1.44-4.24,4.88,4.88,0,0,1,3.8-1.58,4.3,4.3,0,0,1,3.34,1.29,5.21,5.21,0,0,1,1.19,3.68v.93h-8a4.06,4.06,0,0,0,1.06,3,4,4,0,0,0,2.94,1.06,6.54,6.54,0,0,0,3.73-1.3h.08v1.83A10.86,10.86,0,0,1,123.65,44.21Zm-4-6.82h6.38c0-2.16-1-3.24-3-3.24a3.3,3.3,0,0,0-2.37.87A3.59,3.59,0,0,0,119.68,37.39Zm6.43-9.7-2.67,3.6h-1.31l1.75-3.6Z" transform="translate(-11.14 -10.72)"/><path class="cls-3" d="M138,43.29a8.28,8.28,0,0,1-3.41.92,5.12,5.12,0,0,1-3.9-1.47,5.88,5.88,0,0,1-1.39-4.2,5.92,5.92,0,0,1,1.43-4.2,5.06,5.06,0,0,1,3.87-1.53,7.55,7.55,0,0,1,3.4.9v1.88H138a5.78,5.78,0,0,0-3.36-1.31,3.17,3.17,0,0,0-2.59,1.1,4.78,4.78,0,0,0-.93,3.16,4.71,4.71,0,0,0,.92,3.13,3.22,3.22,0,0,0,2.6,1.08,5.75,5.75,0,0,0,3.36-1.3H138Z" transform="translate(-11.14 -10.72)"/><path class="cls-3" d="M149,44h-1.69V42.65a6.13,6.13,0,0,1-3.78,1.61,3.22,3.22,0,0,1-2.61-1.06,4.51,4.51,0,0,1-.91-3V33.08h1.7v6.11a4.79,4.79,0,0,0,.56,2.79,2.27,2.27,0,0,0,1.83.68,5.2,5.2,0,0,0,3.21-1.4V33.08H149Z" transform="translate(-11.14 -10.72)"/><path class="cls-3" d="M154,43.33V48H152.3V33.08H154v1.2a5.83,5.83,0,0,1,3.61-1.51,3.65,3.65,0,0,1,3.06,1.5,6.66,6.66,0,0,1,1.14,4.12,6.17,6.17,0,0,1-1.38,4.17A4.32,4.32,0,0,1,157,44.17,6,6,0,0,1,154,43.33Zm0-7.67V42a6.63,6.63,0,0,0,2.68.65,3,3,0,0,0,2.48-1.1,4.83,4.83,0,0,0,.9-3.12q0-4.06-2.94-4.07A4.91,4.91,0,0,0,154,35.66Z" transform="translate(-11.14 -10.72)"/><path class="cls-3" d="M169.2,44.21A5.75,5.75,0,0,1,165,42.74a5.54,5.54,0,0,1-1.5-4.15,6,6,0,0,1,1.44-4.24,4.88,4.88,0,0,1,3.8-1.58,4.3,4.3,0,0,1,3.34,1.29,5.21,5.21,0,0,1,1.19,3.68v.93h-8a4.06,4.06,0,0,0,1.07,3,4,4,0,0,0,2.94,1.06,6.54,6.54,0,0,0,3.73-1.3H173v1.83A10.86,10.86,0,0,1,169.2,44.21Zm-4-6.82h6.39c-.05-2.16-1.05-3.24-3-3.24a3.3,3.3,0,0,0-2.37.87A3.6,3.6,0,0,0,165.22,37.39Zm6.43-9.7L169,31.29h-1.31l1.75-3.6Z" transform="translate(-11.14 -10.72)"/><path class="cls-3" d="M175.67,44V33.08h1.69v1.68a6.15,6.15,0,0,1,3.77-1.68,7.26,7.26,0,0,1,1.22.1V35h-.07a6.77,6.77,0,0,0-1.62-.19,5.2,5.2,0,0,0-3.3,1.38V44Z" transform="translate(-11.14 -10.72)"/><path class="cls-3" d="M188.72,44.21a5.75,5.75,0,0,1-4.21-1.47,5.54,5.54,0,0,1-1.5-4.15,6,6,0,0,1,1.44-4.24,4.88,4.88,0,0,1,3.8-1.58,4.3,4.3,0,0,1,3.34,1.29,5.21,5.21,0,0,1,1.19,3.68v.93h-8a4.06,4.06,0,0,0,1.06,3,4,4,0,0,0,2.94,1.06,6.57,6.57,0,0,0,3.74-1.3h.07v1.83A10.76,10.76,0,0,1,188.72,44.21Zm-4-6.82h6.38q-.07-3.24-3-3.24a3.26,3.26,0,0,0-2.36.87A3.55,3.55,0,0,0,184.75,37.39Z" transform="translate(-11.14 -10.72)"/><path class="cls-3" d="M195.19,44V33.08h1.69v1.68a6.15,6.15,0,0,1,3.77-1.68,7.26,7.26,0,0,1,1.22.1V35h-.07a6.75,6.75,0,0,0-1.61-.19,5.2,5.2,0,0,0-3.31,1.38V44Z" transform="translate(-11.14 -10.72)"/><path class="cls-3" d="M213.1,44.22a8.43,8.43,0,0,1-3.83-.9v-2h.07a6.48,6.48,0,0,0,3.86,1.44c1.79,0,2.69-.56,2.69-1.69a1.4,1.4,0,0,0-.36-1,3.29,3.29,0,0,0-1.48-.63c-.63-.12-1.35-.28-2.17-.47A3.66,3.66,0,0,1,210,38a2.65,2.65,0,0,1-.67-1.87,2.85,2.85,0,0,1,1.18-2.36,4.94,4.94,0,0,1,3.13-.92,7.65,7.65,0,0,1,3.56.79v1.87h-.07a5.93,5.93,0,0,0-3.57-1.24,3.46,3.46,0,0,0-1.84.42,1.36,1.36,0,0,0-.68,1.19,1.34,1.34,0,0,0,.37,1,3.25,3.25,0,0,0,1.43.63L215,38a3.6,3.6,0,0,1,2,1,2.64,2.64,0,0,1,.67,1.88,2.92,2.92,0,0,1-1.22,2.42A5.31,5.31,0,0,1,213.1,44.22Z" transform="translate(-11.14 -10.72)"/><path class="cls-3" d="M224.76,44.21a5.75,5.75,0,0,1-4.21-1.47,5.54,5.54,0,0,1-1.5-4.15,6,6,0,0,1,1.44-4.24,4.88,4.88,0,0,1,3.8-1.58,4.3,4.3,0,0,1,3.34,1.29,5.21,5.21,0,0,1,1.19,3.68v.93h-8a4.06,4.06,0,0,0,1.06,3,4,4,0,0,0,2.94,1.06,6.54,6.54,0,0,0,3.73-1.3h.08v1.83A10.86,10.86,0,0,1,224.76,44.21Zm-4-6.82h6.38c0-2.16-1-3.24-3-3.24a3.3,3.3,0,0,0-2.37.87A3.55,3.55,0,0,0,220.79,37.39Z" transform="translate(-11.14 -10.72)"/><path class="cls-3" d="M234.3,44.22a8.4,8.4,0,0,1-3.83-.9v-2h.07a6.46,6.46,0,0,0,3.86,1.44c1.79,0,2.68-.56,2.68-1.69a1.44,1.44,0,0,0-.35-1,3.34,3.34,0,0,0-1.49-.63c-.63-.12-1.35-.28-2.16-.47a3.59,3.59,0,0,1-1.89-1,2.65,2.65,0,0,1-.67-1.87,2.87,2.87,0,0,1,1.17-2.36,5,5,0,0,1,3.14-.92,7.58,7.58,0,0,1,3.55.79v1.87h-.07a5.89,5.89,0,0,0-3.57-1.24,3.48,3.48,0,0,0-1.84.42,1.35,1.35,0,0,0-.67,1.19,1.37,1.37,0,0,0,.36,1,3.25,3.25,0,0,0,1.44.63l2.13.46a3.6,3.6,0,0,1,2,1,2.68,2.68,0,0,1,.66,1.88,2.89,2.89,0,0,1-1.22,2.42A5.28,5.28,0,0,1,234.3,44.22Z" transform="translate(-11.14 -10.72)"/><path class="cls-3" d="M254.77,44v-1.2a5.76,5.76,0,0,1-3.6,1.5,3.66,3.66,0,0,1-3.06-1.51A6.73,6.73,0,0,1,247,38.62a6.34,6.34,0,0,1,1.37-4.22,4.3,4.3,0,0,1,3.4-1.63,6.48,6.48,0,0,1,3,.86V28.81h1.7V44Zm0-2.58V34.94a6.34,6.34,0,0,0-2.66-.66,3,3,0,0,0-2.5,1.13,4.94,4.94,0,0,0-.89,3.15q0,4.09,2.94,4.1A4.7,4.7,0,0,0,254.77,41.38Z" transform="translate(-11.14 -10.72)"/><path class="cls-3" d="M264,44.26a4.62,4.62,0,0,1-3.67-1.54,6.12,6.12,0,0,1-1.35-4.19,6.16,6.16,0,0,1,1.36-4.21,5.1,5.1,0,0,1,7.31,0A6.15,6.15,0,0,1,269,38.53a6.13,6.13,0,0,1-1.35,4.2A4.63,4.63,0,0,1,264,44.26Zm0-10a2.89,2.89,0,0,0-2.42,1.1,5.25,5.25,0,0,0-.85,3.21,5.19,5.19,0,0,0,.85,3.18,3.2,3.2,0,0,0,4.83,0,5.12,5.12,0,0,0,.85-3.18C267.22,35.65,266.13,34.22,264,34.22Z" transform="translate(-11.14 -10.72)"/><path class="cls-3" d="M280.44,44h-1.7V37.87a4.75,4.75,0,0,0-.56-2.81,2.22,2.22,0,0,0-1.83-.69,5.14,5.14,0,0,0-3.21,1.41V44h-1.69V33.08h1.69v1.31a5.92,5.92,0,0,1,3.78-1.62,3.23,3.23,0,0,1,2.6,1.06,4.51,4.51,0,0,1,.92,3Z" transform="translate(-11.14 -10.72)"/><path class="cls-3" d="M292.62,44h-1.69V37.87a4.83,4.83,0,0,0-.56-2.81,2.22,2.22,0,0,0-1.84-.69,5.12,5.12,0,0,0-3.2,1.41V44h-1.7V33.08h1.7v1.31a5.87,5.87,0,0,1,3.78-1.62,3.24,3.24,0,0,1,2.6,1.06,4.51,4.51,0,0,1,.91,3Z" transform="translate(-11.14 -10.72)"/><path class="cls-3" d="M300.73,44.21a5.74,5.74,0,0,1-4.21-1.47,5.54,5.54,0,0,1-1.5-4.15,6.08,6.08,0,0,1,1.43-4.24,4.92,4.92,0,0,1,3.81-1.58,4.32,4.32,0,0,1,3.34,1.29,5.25,5.25,0,0,1,1.19,3.68v.93h-8a4.06,4.06,0,0,0,1.07,3,4,4,0,0,0,2.94,1.06,6.54,6.54,0,0,0,3.73-1.3h.08v1.83A10.86,10.86,0,0,1,300.73,44.21Zm-4-6.82h6.38q-.08-3.24-3-3.24a3.28,3.28,0,0,0-2.37.87A3.6,3.6,0,0,0,296.75,37.39Zm6.43-9.7-2.66,3.6h-1.31l1.75-3.6Z" transform="translate(-11.14 -10.72)"/><path class="cls-3" d="M312.11,44.21a5.78,5.78,0,0,1-4.22-1.47,5.58,5.58,0,0,1-1.49-4.15,6.08,6.08,0,0,1,1.43-4.24,4.91,4.91,0,0,1,3.8-1.58A4.33,4.33,0,0,1,315,34.06a5.25,5.25,0,0,1,1.19,3.68v.93h-8a4.06,4.06,0,0,0,1.06,3,4,4,0,0,0,2.94,1.06,6.57,6.57,0,0,0,3.74-1.3H316v1.83A10.86,10.86,0,0,1,312.11,44.21Zm-4-6.82h6.38q-.08-3.24-3-3.24a3.27,3.27,0,0,0-2.37.87A3.6,3.6,0,0,0,308.13,37.39Z" transform="translate(-11.14 -10.72)"/><path class="cls-3" d="M321.64,44.22a8.43,8.43,0,0,1-3.83-.9v-2h.07a6.48,6.48,0,0,0,3.86,1.44c1.79,0,2.69-.56,2.69-1.69a1.4,1.4,0,0,0-.36-1,3.29,3.29,0,0,0-1.48-.63c-.63-.12-1.35-.28-2.17-.47a3.66,3.66,0,0,1-1.89-1,2.65,2.65,0,0,1-.67-1.87A2.85,2.85,0,0,1,319,33.74a5,5,0,0,1,3.13-.92,7.62,7.62,0,0,1,3.56.79v1.87h-.07a5.89,5.89,0,0,0-3.57-1.24,3.46,3.46,0,0,0-1.84.42,1.35,1.35,0,0,0-.67,1.19,1.37,1.37,0,0,0,.36,1,3.25,3.25,0,0,0,1.44.63l2.12.46a3.66,3.66,0,0,1,2,1,2.68,2.68,0,0,1,.66,1.88,2.92,2.92,0,0,1-1.22,2.42A5.31,5.31,0,0,1,321.64,44.22Z" transform="translate(-11.14 -10.72)"/><path class="cls-3" d="M112.64,67V65.74A8.61,8.61,0,0,1,110.41,67a6.41,6.41,0,0,1-1.79.26,3.28,3.28,0,0,1-2.41-1,3.32,3.32,0,0,1-1-2.45A3.19,3.19,0,0,1,106.68,61q1.42-1,6-1.14v-.33a2,2,0,0,0-.68-1.68,3.84,3.84,0,0,0-2.36-.54,8.52,8.52,0,0,0-3.32.77h-.08V56.31a13,13,0,0,1,3.46-.49,5.65,5.65,0,0,1,3.54.9,3.36,3.36,0,0,1,1.12,2.79V67Zm0-2.59V61.21c-2.39.11-3.93.37-4.62.79a2,2,0,0,0-1,1.74q0,2,2.37,1.95A5.25,5.25,0,0,0,112.64,64.36Z" transform="translate(-11.14 -10.72)"/><path class="cls-3" d="M126.59,56.08,122,67h-1.32L116,56.08h1.84l3.49,8.49,3.45-8.49Z" transform="translate(-11.14 -10.72)"/><path class="cls-3" d="M133.29,67.2a5.82,5.82,0,0,1-4.22-1.46,5.6,5.6,0,0,1-1.49-4.16A6.08,6.08,0,0,1,129,57.34a4.9,4.9,0,0,1,3.8-1.57,4.33,4.33,0,0,1,3.35,1.29,5.23,5.23,0,0,1,1.19,3.67v.94h-8a4.11,4.11,0,0,0,1.06,3,4,4,0,0,0,2.94,1,6.5,6.5,0,0,0,3.74-1.3h.08v1.84A10.81,10.81,0,0,1,133.29,67.2Zm-4-6.81h6.38c-.05-2.16-1-3.25-3-3.25a3.27,3.27,0,0,0-2.37.87A3.63,3.63,0,0,0,129.31,60.39Z" transform="translate(-11.14 -10.72)"/><path class="cls-3" d="M147.66,66.29a8.28,8.28,0,0,1-3.41.91,5.1,5.1,0,0,1-3.9-1.47,5.87,5.87,0,0,1-1.39-4.2,5.87,5.87,0,0,1,1.43-4.19,5.06,5.06,0,0,1,3.87-1.53,7.6,7.6,0,0,1,3.4.89v1.89h-.08a5.8,5.8,0,0,0-3.36-1.32,3.19,3.19,0,0,0-2.59,1.11,4.81,4.81,0,0,0-.92,3.15,4.66,4.66,0,0,0,.92,3.13,3.2,3.2,0,0,0,2.59,1.08,5.69,5.69,0,0,0,3.36-1.3h.08Z" transform="translate(-11.14 -10.72)"/></svg>